# xmcd
#
# Track frame offsets:
#	150
#	14492
#	31950
#	44998
#	61385
#	79388
#	94773
#	112116
#	125248
#	140766
#	157099
#	167770
#	188709
#	206114
#
# Disc length: 3050 seconds
#
# Revision: 0
# Processed by: cddbd v1.5.1PL0 Copyright (c) Steve Scherf et al.
# Submitted via: audiograbber 1.82.02
#
DISCID=da0be80e
DTITLE=Country Music - Stand Our Ground
DYEAR=1900
DGENRE=Country
TTITLE0=Lewis Burns - The Junction
TTITLE1=Mirror Child - Mother Earth
TTITLE2=Bill Murray - Hundred In The Shade
TTITLE3=Daroo - Old Dark Man
TTITLE4=The Stranglers - Human Way
TTITLE5=Mirror Child - Judas Kiss
TTITLE6=Daroo - Kamilaroi Lady
TTITLE7=Bill Murray - The Cryin Of The Wiradjuri
TTITLE8=The Stranglers - In A Long Time
TTITLE9=Daroo - Our Land
TTITLE10=The Stranglers - I Hope It's Me
TTITLE11=Mirror Child - Mama
TTITLE12=The Stranglers - Free'N'Easy
TTITLE13=Daroo - Stand Our Ground
EXTD=
EXTT0=
EXTT1=
EXTT2=
EXTT3=
EXTT4=
EXTT5=
EXTT6=
EXTT7=
EXTT8=
EXTT9=
EXTT10=
EXTT11=
EXTT12=
EXTT13=
PLAYORDER=
